<?xml version="1.0" standalone="no"?>
<!DOCTYPE svg PUBLIC "-//W3C//DTD SVG 20010904//EN"
 "http://www.w3.org/TR/2001/REC-SVG-20010904/DTD/svg10.dtd">
<svg version="1.0" xmlns="http://www.w3.org/2000/svg"
 width="270.000000pt" height="270.000000pt" viewBox="0 0 270.000000 270.000000"
 preserveAspectRatio="xMidYMid meet">
<metadata>
Created by potrace 1.14, written by Peter Selinger 2001-2017
</metadata>
<g transform="translate(0.000000,270.000000) scale(0.100000,-0.100000)"
fill="#000000" stroke="none">
<path d="M686 2645 c-7 -8 -16 -11 -20 -8 -3 4 -6 1 -6 -6 0 -7 -4 -10 -8 -7
-5 3 -19 -4 -30 -15 -12 -11 -22 -17 -22 -13 0 3 -7 1 -15 -6 -20 -17 -95 -59
-117 -67 -10 -3 -18 -9 -18 -14 0 -5 -6 -9 -14 -9 -8 0 -21 -6 -28 -12 -7 -7
-33 -24 -58 -37 -25 -13 -52 -30 -61 -37 -8 -8 -20 -14 -25 -14 -5 0 -26 -11
-47 -25 -20 -14 -37 -22 -37 -18 0 4 -5 0 -11 -10 -6 -9 -14 -15 -20 -12 -5 4
-9 1 -9 -4 0 -6 -6 -11 -12 -11 -7 0 -24 -9 -38 -20 l-25 -19 0 -374 0 -375
62 -33 c35 -19 63 -38 63 -42 0 -5 4 -6 9 -2 6 3 14 -3 20 -12 6 -10 11 -14
11 -10 0 7 56 -19 70 -33 6 -6 46 -29 83 -48 15 -7 27 -18 27 -23 0 -6 4 -8 9
-4 5 3 17 -2 25 -11 9 -8 16 -13 16 -9 0 3 20 -8 44 -25 25 -16 49 -30 55 -30
6 0 11 -5 11 -11 0 -5 4 -8 9 -4 5 3 16 -1 23 -9 8 -7 32 -23 55 -34 l40 -21
-1 -120 c-1 -67 3 -121 7 -121 5 0 5 -5 2 -11 -4 -6 -7 -116 -8 -246 l0 -235
24 -19 c13 -10 30 -19 37 -19 6 0 12 -5 12 -11 0 -5 4 -8 9 -5 5 3 14 -1 21
-9 7 -8 18 -15 26 -15 7 0 22 -10 34 -22 11 -12 20 -18 20 -12 0 5 4 4 8 -1 4
-6 28 -22 55 -35 26 -14 47 -29 47 -33 0 -5 5 -5 10 -2 6 3 13 -1 16 -9 3 -9
10 -14 14 -11 5 3 15 -2 23 -10 9 -8 20 -15 25 -15 5 0 25 -11 45 -24 19 -13
38 -22 41 -18 3 3 6 1 6 -5 0 -6 14 -16 30 -23 17 -7 30 -17 30 -23 0 -6 3 -7
7 -4 3 4 13 1 22 -7 9 -8 23 -16 31 -18 8 -2 20 -8 27 -15 7 -6 18 -10 25 -8
38 9 58 18 58 26 0 5 6 9 14 9 7 0 19 7 26 15 7 8 16 12 21 9 5 -3 9 0 9 5 0
6 7 11 15 11 9 0 18 7 21 15 4 8 9 13 13 10 4 -2 27 9 52 26 24 16 49 29 56
29 6 0 13 4 15 9 2 5 10 11 18 13 8 2 23 11 34 21 11 9 26 17 33 17 7 0 13 5
13 11 0 5 4 8 9 4 5 -3 12 -1 15 4 4 5 40 28 81 50 41 23 89 51 108 64 l33 22
-1 360 c0 340 1 360 19 377 10 9 23 15 28 12 4 -3 8 -1 8 5 0 6 11 13 25 17
14 3 25 10 25 15 0 5 7 9 15 9 8 0 15 5 15 12 0 6 3 9 6 5 4 -3 13 1 21 9 8 8
19 12 24 9 5 -4 9 -1 9 5 0 6 10 14 23 19 12 5 68 36 125 70 57 34 108 61 113
61 5 0 9 4 9 8 0 5 18 16 40 26 22 10 46 23 53 29 7 7 28 20 48 30 l36 18 0
379 0 379 -44 23 c-24 13 -43 26 -43 30 0 5 -9 8 -20 8 -11 0 -20 4 -20 8 0 5
-16 14 -35 22 -19 8 -35 16 -35 20 0 3 -25 19 -56 35 -81 43 -94 51 -107 64
-6 6 -20 11 -31 11 -10 0 -17 3 -13 6 3 4 -24 22 -61 41 -37 20 -69 39 -72 43
-3 3 -20 13 -37 21 -18 8 -33 17 -33 21 0 16 -58 7 -82 -12 -14 -10 -28 -16
-32 -13 -3 3 -6 1 -6 -5 0 -7 -7 -12 -15 -12 -8 0 -15 -4 -15 -10 0 -5 -7 -10
-15 -10 -8 0 -15 -5 -15 -11 0 -5 -4 -8 -9 -5 -5 3 -19 -2 -32 -12 -34 -24
-60 -41 -89 -55 -43 -21 -124 -70 -142 -85 -10 -8 -18 -12 -18 -8 0 4 -12 -2
-26 -13 -15 -12 -33 -21 -40 -21 -8 0 -14 -4 -14 -10 0 -5 -11 -12 -24 -16
-14 -3 -27 -12 -30 -20 -3 -8 -14 -14 -25 -14 -11 0 -23 -5 -26 -10 -4 -6 -16
-8 -28 -4 -25 8 -120 65 -128 77 -3 5 -9 9 -12 9 -16 0 -47 11 -47 17 0 3 -21
17 -47 30 -27 14 -55 30 -63 37 -8 7 -22 14 -30 16 -8 2 -17 5 -20 8 -9 10
-55 37 -60 36 -3 -1 -18 9 -34 22 -16 12 -35 22 -42 22 -7 0 -17 6 -21 13 -4
6 -26 21 -48 32 -22 11 -42 22 -45 26 -13 14 -41 17 -54 4z"/>
</g>
</svg>
